#!OML:ASF E:\Steps\Project 1\Capture day 1\Session 2\Subject.ASF
:FULLY-SPECIFIED
:DEGREES
343
root 12.2456 18.8767 16.6573 -150.965 2.53137 178.322
lowerback -27.4299 -3.75058 -5.64113
upperback -2.42744 -2.5655 0.619873
thorax 12.8588 -1.20433 3.06275
lowerneck -3.164 -2.07701 1.29811
upperneck 20.0678 -1.72247 -0.166437
head 6.59858 -0.266157 -0.32819
rclavicle 3.67752e-015 -3.77691e-015
rhumerus -43.4818 -10.1276 -79.052
rradius 36.0813
rwrist -7.04963
rhand -8.40098 -47.1962
rfingers 7.12502
rthumb 17.523 -76.4265
lclavicle 3.67752e-015 -3.77691e-015
lhumerus -31.9491 16.2107 76.7135
lradius 21.0037
lwrist -4.68436
lhand -23.2253 -13.9027
lfingers 7.12502
lthumb 3.22553 16.0526
rfemur -30.0784 10.1401 18.5732
rtibia 14.2094
rfoot -19.3272 -3.1407
rtoes -24.8356
lfemur -27.6402 -9.47473 -19.2958
ltibia 7.8465
lfoot -4.42636 -9.48276
ltoes -15.5403
344
root 12.243 18.8681 16.6417 -150.93 2.55998 178.368
lowerback -27.5786 -3.72139 -5.53701
upperback -2.52532 -2.53942 0.680015
thorax 12.8187 -1.17711 3.08213
lowerneck -3.0073 -2.22725 1.14849
upperneck 19.2843 -2.03467 0.00887086
head 6.32261 -0.455576 -0.267527
rclavicle -2.99171e-014 4.57205e-015
rhumerus -43.6602 -10.2169 -78.9312
rradius 35.9612
rwrist -7.04639
rhand -8.3648 -47.2943
rfingers 7.12502
rthumb 17.5578 -76.5214
lclavicle -2.99171e-014 4.57205e-015
lhumerus -31.9665 16.8219 76.5499
lradius 20.688
lwrist -5.51377
lhand -23.3547 -14.0653
lfingers 7.12502
lthumb 3.10056 15.8919
rfemur -29.9717 10.0121 18.6388
rtibia 14.0497
rfoot -19.3175 -3.08528
rtoes -25.5237
lfemur -27.4785 -9.71344 -19.198
ltibia 7.55492
lfoot -4.36016 -9.14345
ltoes -15.9201
345
root 12.2495 18.8641 16.6413 -150.751 2.43062 178.415
lowerback -27.9185 -3.72666 -5.42262
upperback -2.53111 -2.54157 0.662664
thorax 12.9863 -1.16719 2.98973
lowerneck -2.88453 -2.14953 1.29452
upperneck 18.3989 -2.05282 0.124001
head 6.02045 -0.491341 -0.25666
rclavicle -9.44227e-016 -7.35503e-015
rhumerus -43.6433 -10.4167 -79.0506
rradius 35.8836
rwrist -7.11213
rhand -8.18671 -47.6504
rfingers 7.12502
rthumb 17.7292 -76.8621
lclavicle -9.44227e-016 -7.35503e-015
lhumerus -31.7306 16.7427 76.4996
lradius 20.6136
lwrist -5.61813
lhand -23.4767 -13.9916
lfingers 7.12502
lthumb 2.98274 15.9673
rfemur -30.0615 9.87927 18.817
rtibia 13.9221
rfoot -19.2917 -3.2311
rtoes -26.2267
lfemur -27.6303 -9.39359 -19.1663
ltibia 7.45477
lfoot -4.13576 -9.47999
ltoes -15.5595
346
root 12.255 18.8626 16.6393 -150.652 2.32959 178.438
lowerback -27.936 -3.75132 -5.44309
upperback -2.68677 -2.55249 0.73909
thorax 12.819 -1.15749 3.08951
lowerneck -2.53543 -2.15873 1.28141
upperneck 17.4771 -2.15418 0.251011
head 5.67191 -0.57302 -0.217539
rclavicle 5.71506e-015 1.78906e-015
rhumerus -43.823 -10.5274 -78.9508
rradius 35.7652
rwrist -7.02528
rhand -8.12751 -47.8195
rfingers 7.12502
rthumb 17.7861 -77.0261
lclavicle 5.71506e-015 1.78906e-015
lhumerus -31.8464 16.6246 76.5589
lradius 20.6968
lwrist -5.61827
lhand -23.5475 -13.6331
lfingers 7.12502
lthumb 2.91435 16.3267
rfemur -30.0255 9.75731 18.9299
rtibia 13.6401
rfoot -19.2962 -3.34189
rtoes -26.2469
lfemur -27.6982 -9.1286 -19.1707
ltibia 7.36168
lfoot -4.00026 -9.7644
ltoes -16.0843
347
root 12.2573 18.8599 16.631 -150.694 2.2756 178.422
lowerback -28.0632 -3.71155 -5.39038
upperback -2.67223 -2.50194 0.716508
thorax 12.8948 -1.1312 3.05039
lowerneck -2.30972 -2.16362 1.23091
upperneck 16.5155 -2.27026 0.48244
head 5.33674 -0.662228 -0.141104
rclavicle -6.31141e-015 3.77691e-015
rhumerus -43.7652 -10.9116 -78.8939
rradius 35.5213
rwrist -6.65321
rhand -8.1959 -48.112
rfingers 7.12502
rthumb 17.7203 -77.3246
lclavicle -6.31141e-015 3.77691e-015
lhumerus -31.6712 16.6885 76.5549
lradius 20.6452
lwrist -5.7731
lhand -23.5494 -13.2582
lfingers 7.12502
lthumb 2.91253 16.7017
rfemur -29.748 9.6054 18.9937
rtibia 13.2125
rfoot -19.2626 -3.49518
rtoes -26.6813
lfemur -27.5499 -9.07833 -19.2121
ltibia 7.20606
lfoot -3.88754 -9.81884
ltoes -16.1617
348
root 12.2622 18.8601 16.6236 -150.892 2.06318 178.216
lowerback -27.9793 -3.75976 -5.48278
upperback -2.62394 -2.53604 0.629987
thorax 12.9106 -1.1532 2.99077
lowerneck -2.35174 -2.07117 1.33287
upperneck 15.835 -2.23164 0.572351
head 5.13319 -0.666913 -0.12851
rclavicle -2.32578e-014 -2.98177e-015
rhumerus -43.8184 -11.1784 -78.9907
rradius 35.4945
rwrist -6.39413
rhand -8.24955 -48.244
rfingers 7.12502
rthumb 17.6687 -77.4612
lclavicle -2.32578e-014 -2.98177e-015
lhumerus -31.4406 16.4122 76.6008
lradius 20.6226
lwrist -5.54472
lhand -23.6127 -13.2913
lfingers 7.12502
lthumb 2.85139 16.6694
rfemur -29.169 9.49147 18.9631
rtibia 12.6807
rfoot -19.1458 -4.00652
rtoes -27.6797
lfemur -27.2238 -8.80369 -19.578
ltibia 7.04753
lfoot -3.57355 -10.3918
ltoes -14.8216
349
root 12.2588 18.8759 16.606 -151.755 1.45715 177.73
lowerback -27.1571 -3.96959 -5.67539
upperback -2.44882 -2.84487 0.53445
thorax 12.7136 -1.32499 2.88364
lowerneck -2.50129 -1.97646 1.29502
upperneck 15.1225 -2.18261 0.61166
head 4.93982 -0.682091 -0.109132
rclavicle -2.25124e-014 8.34896e-015
rhumerus -43.8579 -11.2623 -79.0507
rradius 35.4047
rwrist -6.17022
rhand -8.30356 -47.9769
rfingers 7.12502
rthumb 17.6167 -77.1988
lclavicle -2.25124e-014 8.34896e-015
lhumerus -31.4395 16.0323 76.7052
lradius 20.8146
lwrist -5.00473
lhand -23.6317 -13.4507
lfingers 7.12502
lthumb 2.83309 16.5102
rfemur -27.5269 9.07105 18.7633
rtibia 11.6792
rfoot -19.0248 -4.59689
rtoes -28.1249
lfemur -26.1186 -8.97041 -20.2721
ltibia 6.76841
lfoot -3.23638 -11.0778
ltoes -14.5262
350
root 12.2658 18.8716 16.6104 -151.634 1.39719 177.576
lowerback -27.1675 -4.1979 -5.779
upperback -2.47184 -3.13573 0.707495
thorax 12.7372 -1.46852 3.03045
lowerneck -2.76451 -1.98708 0.769812
upperneck 14.0842 -2.30013 0.851536
head 4.67418 -0.810186 0.0431858
rclavicle 2.09718e-014 1.37161e-014
rhumerus -43.4592 -10.8847 -79.0327
rradius 35.0785
rwrist -5.97014
rhand -8.42476 -47.8002
rfingers 7.12502
rthumb 17.5001 -77.0326
lclavicle 2.09718e-014 1.37161e-014
lhumerus -31.3908 16.3517 76.8728
lradius 21.0278
lwrist -4.68152
lhand -23.4588 -13.4673
lfingers 7.12502
lthumb 3.00003 16.4913
rfemur -27.4547 8.70718 18.7283
rtibia 11.3152
rfoot -19.0582 -4.42543
rtoes -27.8435
lfemur -26.279 -8.52252 -20.5708
ltibia 6.7715
lfoot -2.98367 -11.5974
ltoes -14.496
351
root 12.2713 18.868 16.6098 -151.638 1.36515 177.57
lowerback -27.1576 -4.09854 -5.78301
upperback -2.56215 -2.97711 0.623186
thorax 12.6057 -1.38134 3.00025
lowerneck -2.39753 -1.80799 1.24629
upperneck 12.7918 -2.09791 0.584816
head 4.65022 -0.737012 -0.105613
rclavicle 1.77912e-014 -1.98785e-016
rhumerus -43.6812 -11.214 -79.0177
rradius 34.9119
rwrist -5.86678
rhand -8.38915 -47.5742
rfingers 7.12502
rthumb 17.5344 -76.8035
lclavicle 1.77912e-014 -1.98785e-016
lhumerus -31.3138 15.5911 76.9943
lradius 21.163
lwrist -4.26573
lhand -23.0891 -13.5046
lfingers 7.12502
lthumb 3.35707 16.4487
rfemur -27.2567 8.63897 18.8044
rtibia 11.055
rfoot -19.1549 -4.58429
rtoes -28.2799
lfemur -26.277 -8.27363 -20.639
ltibia 6.78555
lfoot -2.87266 -11.7916
ltoes -14.2174
352
root 12.2741 18.8662 16.6076 -151.665 1.3546 177.549
lowerback -27.2152 -4.07098 -5.70481
upperback -2.55332 -2.95918 0.61646
thorax 12.6401 -1.36937 2.95281
lowerneck -2.1563 -1.76056 1.27608
upperneck 11.87 -2.07745 0.49249
head 4.26384 -0.766332 -0.136849
rclavicle -1.63997e-015 1.37161e-014
rhumerus -43.623 -11.175 -79.0354
rradius 34.7291
rwrist -5.87541
rhand -8.38852 -47.5149
rfingers 7.12502
rthumb 17.535 -76.7441
lclavicle -1.63997e-015 1.37161e-014
lhumerus -31.1876 15.3314 77.138
lradius 21.3794
lwrist -4.00884
lhand -23.1449 -13.4522
lfingers 7.12502
lthumb 3.30318 16.502
rfemur -27.074 8.74706 18.7927
rtibia 10.8492
rfoot -19.2392 -4.93011
rtoes -28.8972
lfemur -26.2544 -8.40915 -20.6317
ltibia 6.82049
lfoot -2.93757 -11.6145
ltoes -14.1282
353
root 12.2753 18.8638 16.6049 -151.654 1.38427 177.499
lowerback -27.4211 -3.99659 -5.5633
upperback -2.48135 -2.87979 0.526229
thorax 12.8131 -1.32815 2.79127
lowerneck -2.04423 -1.7629 1.28516
upperneck 11.0295 -2.13617 0.551216
head 3.94046 -0.824746 -0.118079
rclavicle 1.14301e-015 -1.25234e-014
rhumerus -43.5131 -11.2894 -79.153
rradius 34.638
rwrist -5.89394
rhand -8.62991 -48.0845
rfingers 7.12502
rthumb 17.3027 -77.3343
lclavicle 1.14301e-015 -1.25234e-014
lhumerus -30.9444 15.0125 77.2756
lradius 21.597
lwrist -3.90629
lhand -23.79 -13.4069
lfingers 7.12502
lthumb 2.68018 16.556
rfemur -26.9564 8.51064 18.8061
rtibia 10.6481
rfoot -19.288 -4.82022
rtoes -28.9276
lfemur -26.2034 -8.6679 -20.6277
ltibia 6.71855
lfoot -2.9105 -11.1831
ltoes -13.4814
354
root 12.275 18.8614 16.5991 -151.667 1.41845 177.508
lowerback -27.5456 -3.87588 -5.39875
upperback -2.49627 -2.74564 0.452376
thorax 12.8365 -1.25204 2.66133
lowerneck -2.06743 -1.82494 1.25085
upperneck 10.5752 -2.26164 0.714974
head 3.78601 -0.898559 -0.0619519
rclavicle 4.24654e-014 1.47101e-014
rhumerus -43.5675 -11.4315 -79.2
rradius 34.4665
rwrist -5.95307
rhand -8.77463 -48.2879
rfingers 7.12502
rthumb 17.1634 -77.5498
lclavicle 4.24654e-014 1.47101e-014
lhumerus -30.8668 14.6372 77.3787
lradius 21.7432
lwrist -3.91578
lhand -24.1494 -13.544
lfingers 7.12502
lthumb 2.33307 16.423
rfemur -26.8008 8.11571 18.9223
rtibia 10.4314
rfoot -19.2396 -4.5359
rtoes -29.2732
lfemur -26.0423 -8.92203 -20.5601
ltibia 6.46245
lfoot -2.74891 -10.6512
ltoes -12.8136
355
root 12.2762 18.8613 16.5946 -151.707 1.46487 177.519
lowerback -27.4779 -3.7921 -5.32753
upperback -2.60315 -2.64946 0.453077
thorax 12.6631 -1.19298 2.66308
lowerneck -2.12164 -1.83851 1.38595
upperneck 10.1801 -2.28488 0.395532
head 3.65117 -0.934576 -0.190569
rclavicle -3.23771e-014 3.08116e-015
rhumerus -43.6834 -11.6042 -79.0483
rradius 34.1172
rwrist -5.882
rhand -8.82511 -47.883
rfingers 7.12502
rthumb 17.1148 -77.1492
lclavicle -3.23771e-014 3.08116e-015
lhumerus -30.9425 14.3767 77.4715
lradius 21.8574
lwrist -3.93769
lhand -23.9664 -13.5721
lfingers 7.12502
lthumb 2.50984 16.3929
rfemur -26.6007 7.93082 18.9859
rtibia 10.1588
rfoot -19.109 -4.31037
rtoes -29.34
lfemur -25.8808 -9.10399 -20.5162
ltibia 6.27802
lfoot -2.63401 -10.2846
ltoes -11.7174
356
root 12.2794 18.8629 16.5911 -151.752 1.54927 177.53
lowerback -27.3607 -3.69303 -5.28285
upperback -2.70647 -2.5267 0.429303
thorax 12.466 -1.12289 2.66257
lowerneck -2.1583 -1.78888 1.50444
upperneck 9.65357 -2.24028 0.219496
head 3.47069 -0.934677 -0.264997
rclavicle 2.5345e-015 1.90833e-014
rhumerus -43.829 -12.0628 -78.8265
rradius 33.8329
rwrist -5.50174
rhand -8.84217 -47.5968
rfingers 7.12502
rthumb 17.0984 -76.8644
lclavicle 2.5345e-015 1.90833e-014
lhumerus -30.8873 14.1506 77.5098
lradius 21.82
lwrist -4.01801
lhand -23.4517 -13.6501
lfingers 7.12502
lthumb 3.00688 16.3085
rfemur -26.3858 8.03423 18.9691
rtibia 9.85265
rfoot -18.9251 -4.12
rtoes -28.5448
lfemur -25.7522 -9.26969 -20.4771
ltibia 6.18629
lfoot -2.5593 -9.95945
ltoes -10.0356
